<svg width="61" height="41" viewBox="0 0 61 41" fill="none" xmlns="http://www.w3.org/2000/svg">
<path d="M30.3373 35.5935C30.3373 33.9567 31.6514 32.6452 33.2907 32.6452C34.9276 32.6452 36.2391 33.9567 36.2391 35.5935C36.2404 35.9812 36.1651 36.3653 36.0174 36.7238C35.8698 37.0822 35.6527 37.4079 35.3787 37.6822C35.1047 37.9564 34.7791 38.1738 34.4208 38.3218C34.0625 38.4697 33.6784 38.5454 33.2907 38.5444C32.9029 38.5461 32.5185 38.471 32.1597 38.3235C31.801 38.176 31.4749 37.9589 31.2004 37.6849C30.9259 37.4108 30.7083 37.0852 30.5602 36.7267C30.4121 36.3682 30.3363 35.9839 30.3373 35.5961V35.5935ZM42.3442 35.5961C42.3442 33.9567 43.6582 32.6426 45.295 32.6426C46.9319 32.6426 48.2459 33.9567 48.2459 35.5935C48.2459 37.2303 46.9319 38.5444 45.2976 38.5444C44.9097 38.5461 44.5253 38.471 44.1666 38.3235C43.8078 38.176 43.4818 37.9589 43.2073 37.6849C42.9327 37.4108 42.7152 37.0852 42.567 36.7267C42.4189 36.3682 42.3432 35.9839 42.3442 35.5961ZM14.5129 35.5961C14.5129 33.9567 15.827 32.6426 17.4638 32.6426C19.1006 32.6426 20.4121 33.9567 20.4121 35.5935C20.4121 37.2303 19.1006 38.5444 17.4638 38.5444C17.0761 38.5457 16.692 38.4704 16.3335 38.3227C15.9751 38.1751 15.6494 37.958 15.3751 37.684C15.1009 37.41 14.8835 37.0844 14.7355 36.7261C14.5876 36.3678 14.5119 35.9837 14.5129 35.5961ZM2.50608 35.5961C2.50608 33.9567 3.82013 32.6426 5.45696 32.6426C7.09379 32.6426 8.40783 33.9567 8.40783 35.5935C8.40918 35.9814 8.33377 36.3657 8.18595 36.7243C8.03813 37.083 7.82082 37.4088 7.54654 37.6831C7.27226 37.9574 6.94642 38.1747 6.5878 38.3225C6.22917 38.4703 5.84485 38.5457 5.45696 38.5444C5.0695 38.5454 4.68565 38.4698 4.32749 38.322C3.96933 38.1742 3.64391 37.9571 3.36993 37.6831C3.09595 37.4091 2.87882 37.0837 2.731 36.7255C2.58319 36.3674 2.50762 35.9835 2.50863 35.5961H2.50608ZM26.7815 30.3806H24.2145V40.7073H26.7815V30.3806ZM8.3875 40.7073H10.9546V30.3806H8.3875V31.2091C7.49267 30.5864 6.42769 30.2545 5.3375 30.2586C2.38408 30.2586 0 32.6426 0 35.5961C0 38.5647 2.38408 40.931 5.3375 40.931C6.46854 40.931 7.51825 40.5879 8.3875 39.9804V40.7073ZM48.2256 40.7073H50.7927V30.3806H48.2256V31.2091C47.3308 30.5864 46.2658 30.2545 45.1756 30.2586C42.2222 30.2586 39.8381 32.6426 39.8381 35.5961C39.8357 36.2975 39.9722 36.9925 40.2396 37.641C40.5071 38.2895 40.9002 38.8787 41.3963 39.3746C41.8924 39.8705 42.4818 40.2633 43.1304 40.5304C43.779 40.7976 44.4741 40.9337 45.1756 40.931C46.3066 40.931 47.3563 40.5879 48.2256 39.9804V40.7073ZM51.7433 37.3523C51.8246 39.4365 53.6038 40.9107 56.5724 40.9107C58.9997 40.9107 61 39.8584 61 37.5353C61 35.9188 60.0901 34.9683 57.9881 34.5616L56.3513 34.2413C55.299 34.038 54.5721 33.8347 54.5721 33.2094C54.5721 32.5232 55.2787 32.2182 56.1683 32.2182C57.4645 32.2182 57.9881 32.8663 58.0288 33.6339H60.6162C60.4739 31.6133 58.8574 30.2586 56.2496 30.2586C53.5631 30.2586 51.9644 31.7327 51.9644 33.6542C51.9644 35.9976 53.8655 36.3814 55.5024 36.6864L56.8571 36.9279C57.828 37.1109 58.2525 37.393 58.2525 37.9598C58.2525 38.4656 57.767 38.9688 56.6131 38.9688C54.9356 38.9688 54.3917 38.0996 54.3713 37.3523H51.7433ZM20.3943 26.8629V31.2091C19.4995 30.5864 18.4345 30.2545 17.3443 30.2586C14.3909 30.2586 12.0068 32.6426 12.0068 35.5961C12.0068 38.5647 14.3909 40.931 17.3443 40.931C18.4728 40.931 19.5251 40.5879 20.3943 39.9804V40.7073H22.9614V26.8629H20.3943ZM36.2188 26.8629V31.2091C35.3239 30.5864 34.2589 30.2545 33.1688 30.2586C30.2179 30.2586 27.8313 32.6426 27.8313 35.5961C27.8289 36.2975 27.9654 36.9925 28.2328 37.641C28.5002 38.2895 28.8933 38.8787 29.3895 39.3746C29.8856 39.8705 30.475 40.2633 31.1236 40.5304C31.7722 40.7976 32.4673 40.9337 33.1688 40.931C34.2998 40.931 35.3495 40.5879 36.2188 39.9804V40.7073H38.7858V26.8629H36.2188ZM6.66933 23.8129L8.40783 26.8629H20.3943L15.644 18.6558L6.67188 23.8103L6.66933 23.8129ZM26.7815 29.43V26.8629H36.2188L26.1538 9.43975L17.1588 14.5943L24.2145 26.8629V29.43H26.7815ZM40.0414 26.8629H52.0457L36.5238 0L27.5491 5.17484L40.0414 26.8629Z" fill="black"/>
</svg>
