<svg width="50" height="33" viewBox="0 0 50 33" fill="none" xmlns="http://www.w3.org/2000/svg">
<mask id="path-1-inside-1_27_5" fill="white">
<path d="M91.6667 66.6667H8.33333C3.7309 66.6667 0 62.9358 0 58.3333V8.33333C0 3.7309 3.7309 0 8.33333 0H91.6667C96.2691 0 100 3.7309 100 8.33333V58.3333C100 62.9358 96.2691 66.6667 91.6667 66.6667ZM22.2222 20.1389V13.1944C22.2222 12.0439 21.2894 11.1111 20.1389 11.1111H13.1944C12.0439 11.1111 11.1111 12.0439 11.1111 13.1944V20.1389C11.1111 21.2894 12.0439 22.2222 13.1944 22.2222H20.1389C21.2894 22.2222 22.2222 21.2894 22.2222 20.1389ZM38.8889 20.1389V13.1944C38.8889 12.0439 37.9561 11.1111 36.8056 11.1111H29.8611C28.7106 11.1111 27.7778 12.0439 27.7778 13.1944V20.1389C27.7778 21.2894 28.7106 22.2222 29.8611 22.2222H36.8056C37.9561 22.2222 38.8889 21.2894 38.8889 20.1389ZM55.5556 20.1389V13.1944C55.5556 12.0439 54.6227 11.1111 53.4722 11.1111H46.5278C45.3773 11.1111 44.4444 12.0439 44.4444 13.1944V20.1389C44.4444 21.2894 45.3773 22.2222 46.5278 22.2222H53.4722C54.6227 22.2222 55.5556 21.2894 55.5556 20.1389ZM72.2222 20.1389V13.1944C72.2222 12.0439 71.2894 11.1111 70.1389 11.1111H63.1944C62.0439 11.1111 61.1111 12.0439 61.1111 13.1944V20.1389C61.1111 21.2894 62.0439 22.2222 63.1944 22.2222H70.1389C71.2894 22.2222 72.2222 21.2894 72.2222 20.1389ZM88.8889 20.1389V13.1944C88.8889 12.0439 87.9561 11.1111 86.8055 11.1111H79.8611C78.7106 11.1111 77.7778 12.0439 77.7778 13.1944V20.1389C77.7778 21.2894 78.7106 22.2222 79.8611 22.2222H86.8055C87.9561 22.2222 88.8889 21.2894 88.8889 20.1389ZM30.5556 36.8055V29.8611C30.5556 28.7106 29.6227 27.7778 28.4722 27.7778H21.5278C20.3773 27.7778 19.4444 28.7106 19.4444 29.8611V36.8055C19.4444 37.9561 20.3773 38.8889 21.5278 38.8889H28.4722C29.6227 38.8889 30.5556 37.9561 30.5556 36.8055ZM47.2222 36.8055V29.8611C47.2222 28.7106 46.2894 27.7778 45.1389 27.7778H38.1944C37.0439 27.7778 36.1111 28.7106 36.1111 29.8611V36.8055C36.1111 37.9561 37.0439 38.8889 38.1944 38.8889H45.1389C46.2894 38.8889 47.2222 37.9561 47.2222 36.8055ZM63.8889 36.8055V29.8611C63.8889 28.7106 62.9561 27.7778 61.8056 27.7778H54.8611C53.7106 27.7778 52.7778 28.7106 52.7778 29.8611V36.8055C52.7778 37.9561 53.7106 38.8889 54.8611 38.8889H61.8056C62.9561 38.8889 63.8889 37.9561 63.8889 36.8055ZM80.5555 36.8055V29.8611C80.5555 28.7106 79.6227 27.7778 78.4722 27.7778H71.5278C70.3773 27.7778 69.4444 28.7106 69.4444 29.8611V36.8055C69.4444 37.9561 70.3773 38.8889 71.5278 38.8889H78.4722C79.6227 38.8889 80.5555 37.9561 80.5555 36.8055ZM22.2222 53.4722V46.5278C22.2222 45.3773 21.2894 44.4444 20.1389 44.4444H13.1944C12.0439 44.4444 11.1111 45.3773 11.1111 46.5278V53.4722C11.1111 54.6227 12.0439 55.5555 13.1944 55.5555H20.1389C21.2894 55.5555 22.2222 54.6227 22.2222 53.4722ZM72.2222 53.4722V46.5278C72.2222 45.3773 71.2894 44.4444 70.1389 44.4444H29.8611C28.7106 44.4444 27.7778 45.3773 27.7778 46.5278V53.4722C27.7778 54.6227 28.7106 55.5555 29.8611 55.5555H70.1389C71.2894 55.5555 72.2222 54.6227 72.2222 53.4722ZM88.8889 53.4722V46.5278C88.8889 45.3773 87.9561 44.4444 86.8055 44.4444H79.8611C78.7106 44.4444 77.7778 45.3773 77.7778 46.5278V53.4722C77.7778 54.6227 78.7106 55.5555 79.8611 55.5555H86.8055C87.9561 55.5555 88.8889 54.6227 88.8889 53.4722Z"/>
</mask>
<path d="M91.6667 66.6667H8.33333C3.7309 66.6667 0 62.9358 0 58.3333V8.33333C0 3.7309 3.7309 0 8.33333 0H91.6667C96.2691 0 100 3.7309 100 8.33333V58.3333C100 62.9358 96.2691 66.6667 91.6667 66.6667ZM22.2222 20.1389V13.1944C22.2222 12.0439 21.2894 11.1111 20.1389 11.1111H13.1944C12.0439 11.1111 11.1111 12.0439 11.1111 13.1944V20.1389C11.1111 21.2894 12.0439 22.2222 13.1944 22.2222H20.1389C21.2894 22.2222 22.2222 21.2894 22.2222 20.1389ZM38.8889 20.1389V13.1944C38.8889 12.0439 37.9561 11.1111 36.8056 11.1111H29.8611C28.7106 11.1111 27.7778 12.0439 27.7778 13.1944V20.1389C27.7778 21.2894 28.7106 22.2222 29.8611 22.2222H36.8056C37.9561 22.2222 38.8889 21.2894 38.8889 20.1389ZM55.5556 20.1389V13.1944C55.5556 12.0439 54.6227 11.1111 53.4722 11.1111H46.5278C45.3773 11.1111 44.4444 12.0439 44.4444 13.1944V20.1389C44.4444 21.2894 45.3773 22.2222 46.5278 22.2222H53.4722C54.6227 22.2222 55.5556 21.2894 55.5556 20.1389ZM72.2222 20.1389V13.1944C72.2222 12.0439 71.2894 11.1111 70.1389 11.1111H63.1944C62.0439 11.1111 61.1111 12.0439 61.1111 13.1944V20.1389C61.1111 21.2894 62.0439 22.2222 63.1944 22.2222H70.1389C71.2894 22.2222 72.2222 21.2894 72.2222 20.1389ZM88.8889 20.1389V13.1944C88.8889 12.0439 87.9561 11.1111 86.8055 11.1111H79.8611C78.7106 11.1111 77.7778 12.0439 77.7778 13.1944V20.1389C77.7778 21.2894 78.7106 22.2222 79.8611 22.2222H86.8055C87.9561 22.2222 88.8889 21.2894 88.8889 20.1389ZM30.5556 36.8055V29.8611C30.5556 28.7106 29.6227 27.7778 28.4722 27.7778H21.5278C20.3773 27.7778 19.4444 28.7106 19.4444 29.8611V36.8055C19.4444 37.9561 20.3773 38.8889 21.5278 38.8889H28.4722C29.6227 38.8889 30.5556 37.9561 30.5556 36.8055ZM47.2222 36.8055V29.8611C47.2222 28.7106 46.2894 27.7778 45.1389 27.7778H38.1944C37.0439 27.7778 36.1111 28.7106 36.1111 29.8611V36.8055C36.1111 37.9561 37.0439 38.8889 38.1944 38.8889H45.1389C46.2894 38.8889 47.2222 37.9561 47.2222 36.8055ZM63.8889 36.8055V29.8611C63.8889 28.7106 62.9561 27.7778 61.8056 27.7778H54.8611C53.7106 27.7778 52.7778 28.7106 52.7778 29.8611V36.8055C52.7778 37.9561 53.7106 38.8889 54.8611 38.8889H61.8056C62.9561 38.8889 63.8889 37.9561 63.8889 36.8055ZM80.5555 36.8055V29.8611C80.5555 28.7106 79.6227 27.7778 78.4722 27.7778H71.5278C70.3773 27.7778 69.4444 28.7106 69.4444 29.8611V36.8055C69.4444 37.9561 70.3773 38.8889 71.5278 38.8889H78.4722C79.6227 38.8889 80.5555 37.9561 80.5555 36.8055ZM22.2222 53.4722V46.5278C22.2222 45.3773 21.2894 44.4444 20.1389 44.4444H13.1944C12.0439 44.4444 11.1111 45.3773 11.1111 46.5278V53.4722C11.1111 54.6227 12.0439 55.5555 13.1944 55.5555H20.1389C21.2894 55.5555 22.2222 54.6227 22.2222 53.4722ZM72.2222 53.4722V46.5278C72.2222 45.3773 71.2894 44.4444 70.1389 44.4444H29.8611C28.7106 44.4444 27.7778 45.3773 27.7778 46.5278V53.4722C27.7778 54.6227 28.7106 55.5555 29.8611 55.5555H70.1389C71.2894 55.5555 72.2222 54.6227 72.2222 53.4722ZM88.8889 53.4722V46.5278C88.8889 45.3773 87.9561 44.4444 86.8055 44.4444H79.8611C78.7106 44.4444 77.7778 45.3773 77.7778 46.5278V53.4722C77.7778 54.6227 78.7106 55.5555 79.8611 55.5555H86.8055C87.9561 55.5555 88.8889 54.6227 88.8889 53.4722Z" fill="white" stroke="black" stroke-width="2" mask="url(#path-1-inside-1_27_5)"/>
</svg>
