<svg width="60" height="88" viewBox="0 0 60 88" fill="none" xmlns="http://www.w3.org/2000/svg">
<path d="M26.4091 73.2698V72.8341L25.9774 72.7745C11.2427 70.7425 0.5 57.3538 0.5 42.3V35.4545C0.5 34.2239 1.4966 33.2273 2.72727 33.2273H5.45455C6.68522 33.2273 7.68182 34.2239 7.68182 35.4545V42.6647C7.68182 54.2806 16.1516 64.7124 27.7713 65.8465L27.8199 65.3488L27.7714 65.8465C41.074 67.1436 52.3182 56.6786 52.3182 43.6363V35.4545C52.3182 34.2239 53.3148 33.2273 54.5455 33.2273H57.2727C58.5034 33.2273 59.5 34.2239 59.5 35.4545V43.6363C59.5 58.5355 48.3894 70.8681 34.0229 72.8393L33.5909 72.8985V73.3346V79.0909V79.5909H34.0909H43.6364C44.867 79.5909 45.8636 80.5875 45.8636 81.8181V84.5454C45.8636 85.7761 44.867 86.7727 43.6364 86.7727H16.3636C15.133 86.7727 14.1364 85.7761 14.1364 84.5454V81.8181C14.1364 80.5875 15.133 79.5909 16.3636 79.5909H25.9091H26.4091V79.0909V73.2698ZM45.8559 44.1363C45.5918 52.6663 38.5941 59.5 30 59.5C21.2386 59.5 14.1364 52.3977 14.1364 43.6363V16.3636C14.1364 7.60227 21.2386 0.5 30 0.5C38.5941 0.5 45.5918 7.33365 45.8559 15.8636H31.8188C31.2191 15.8636 30.6567 16.0452 30.233 16.3628C29.8091 16.6805 29.5 17.1578 29.5 17.7273V20.4545C29.5 21.024 29.8091 21.5013 30.233 21.819C30.6567 22.1366 31.2191 22.3182 31.8188 22.3182H45.8636V26.7727H31.8188C31.2191 26.7727 30.6567 26.9543 30.233 27.2719C29.8091 27.5896 29.5 28.0668 29.5 28.6363V31.3636C29.5 31.9331 29.8091 32.4103 30.233 32.7281C30.6567 33.0456 31.2191 33.2273 31.8188 33.2273H45.8636V37.6818H31.8188C31.2191 37.6818 30.6567 37.8634 30.233 38.181C29.8091 38.4987 29.5 38.9759 29.5 39.5454V42.2727C29.5 42.8422 29.8091 43.3194 30.233 43.6371C30.6567 43.9547 31.2191 44.1363 31.8188 44.1363H45.8559Z" fill="white" stroke="black"/>
</svg>
