<svg width="30" height="30" viewBox="0 0 30 30" xmlns="http://www.w3.org/2000" 60" fill="none" xmlns="http://www.w3.org/2000/svg">
<path d="M59.3351 5.55345L59.3337 5.55834L44.9304 56.657L44.9299 56.6589C44.7172 57.4252 44.2736 58.1073 43.6595 58.6125C43.0502 59.1138 42.3023 59.4168 41.5162 59.4812H41.1523C40.4181 59.4795 39.6993 59.2706 39.0787 58.8783C38.458 58.4861 37.9608 57.9266 37.6441 57.2642L27.8338 36.5444C27.8336 36.5438 27.8333 36.5432 27.833 36.5426C27.7801 36.4273 27.7633 36.2986 27.7851 36.1736C27.8069 36.0484 27.8662 35.9328 27.9551 35.8421C27.9555 35.8417 27.9558 35.8414 27.9562 35.841L42.0462 21.751C42.3127 21.5071 42.5276 21.2123 42.6781 20.8838L42.2236 20.6756L42.6781 20.8838C42.8304 20.5514 42.9136 20.1916 42.9226 19.826C42.9316 19.4605 42.8662 19.097 42.7305 18.7575C42.5947 18.4181 42.3914 18.1097 42.1329 17.8512C41.8743 17.5926 41.566 17.3893 41.2265 17.2536C40.887 17.1178 40.5235 17.0525 40.158 17.0615C39.7925 17.0705 39.4326 17.1536 39.1002 17.3059C38.7717 17.4565 38.4767 17.6714 38.2329 17.938L24.143 32.0554C24.1426 32.0558 24.1421 32.0562 24.1417 32.0567C24.051 32.1455 23.9355 32.2047 23.8104 32.2264C23.6853 32.2482 23.5566 32.2314 23.4412 32.1784C23.4407 32.1782 23.4401 32.1779 23.4396 32.1777L2.82808 22.4215L2.82771 22.4214C2.10925 22.082 1.50607 21.5395 1.0928 20.8608L0.66857 21.1192L1.0928 20.8608C0.680291 20.1835 0.475076 19.4002 0.502416 18.6076C0.546333 17.796 0.844628 17.0188 1.35506 16.3862C1.8664 15.7525 2.56458 15.2962 3.35026 15.0823L3.35026 15.0823L3.3545 15.0811L54.5631 0.650329L54.5648 0.649848C55.3586 0.423144 56.2039 0.454335 56.9789 0.738926C57.7518 1.02276 58.4149 1.54405 58.8733 2.22795C59.1805 2.71707 59.3807 3.26575 59.4607 3.83788C59.5409 4.41218 59.4981 4.99696 59.3351 5.55345Z" fill="white" stroke="black"/>
</svg>
